<svg xmlns="http://www.w3.org/2000/svg" width="512" height="512" viewBox="0 0 512 512">
<defs>
<linearGradient id="p" x1="0" y1="0" x2="0" y2="1"><stop offset="0" stop-color="#33333b"/><stop offset="1" stop-color="#17171b"/></linearGradient>
<linearGradient id="d" x1="0" y1="0" x2="1" y2="1"><stop offset="0" stop-color="#6ee7b7"/><stop offset="1" stop-color="#10b981"/></linearGradient>
</defs>
<rect width="512" height="512" rx="116" fill="url(#p)"/>
<rect x="2" y="2" width="508" height="508" rx="114" fill="none" stroke="#ffffff" stroke-opacity="0.14" stroke-width="4"/>
<g fill="none" stroke="#a1a1ab" stroke-width="20" stroke-linecap="round">
<path d="M136 256 C186 256 186 140 236 140"/><path d="M136 256 C186 256 186 372 236 372"/>
<path d="M300 140 C350 140 350 256 400 256"/><path d="M300 372 C350 372 350 256 400 256"/>
</g>
<g fill="#fcfcfd">
<rect x="70" y="204" width="104" height="104" rx="32"/>
<rect x="216" y="88" width="104" height="104" rx="32"/>
<rect x="216" y="320" width="104" height="104" rx="32"/>
</g>
<rect x="362" y="204" width="104" height="104" rx="32" fill="url(#d)"/>
</svg>
